<svg width="11" height="11" viewBox="0 0 11 11" fill="none" xmlns="http://www.w3.org/2000/svg">
<path d="M10.5926 1.26923H8.63411V0.884615C8.63411 0.653846 8.47743 0.5 8.24241 0.5H2.75854C2.52351 0.5 2.36683 0.653846 2.36683 0.884615V1.26923H0.408307C0.173284 1.26923 0.0166016 1.42308 0.0166016 1.65385V2.69231C0.0166016 4.38462 1.3484 5.76923 3.0719 5.84615C3.38527 6.26923 3.81614 6.57692 4.32536 6.76923V7.80769H3.93365C3.26775 7.80769 2.75854 8.30769 2.75854 8.96154V10.1154C2.75854 10.3462 2.91522 10.5 3.15024 10.5H7.8507C8.08573 10.5 8.24241 10.3462 8.24241 10.1154V8.96154C8.24241 8.30769 7.73319 7.80769 7.06729 7.80769H6.67559V6.80769C7.1848 6.61538 7.61568 6.26923 7.92904 5.88462C9.61338 5.76923 10.9843 4.42308 10.9843 2.73077V1.65385C10.9843 1.42308 10.8277 1.26923 10.5926 1.26923ZM0.800012 2.69231V2.03846H2.36683V3.96154C2.36683 4.34615 2.44517 4.69231 2.56268 5C1.54425 4.73077 0.800012 3.80769 0.800012 2.69231ZM10.2009 2.69231C10.2009 3.76923 9.45669 4.69231 8.43826 5C8.55577 4.69231 8.63411 4.34615 8.63411 3.96154V2.03846H10.2009V2.69231Z" fill="#522B04"/>
</svg>
