<svg width="12" height="10" viewBox="0 0 12 10" fill="none" xmlns="http://www.w3.org/2000/svg">
<path d="M11.3133 0.769231H9.35482V0.384615C9.35482 0.153846 9.19813 0 8.96311 0H3.47924C3.24422 0 3.08754 0.153846 3.08754 0.384615V0.769231H1.12901C0.893987 0.769231 0.737305 0.923077 0.737305 1.15385V2.19231C0.737305 3.88462 2.0691 5.26923 3.7926 5.34615C4.10597 5.76923 4.53684 6.07692 5.04606 6.26923V7.30769H4.65436C3.98846 7.30769 3.47924 7.80769 3.47924 8.46154V9.61539C3.47924 9.84615 3.63592 10 3.87095 10H8.57141C8.80643 10 8.96311 9.84615 8.96311 9.61539V8.46154C8.96311 7.80769 8.45389 7.30769 7.788 7.30769H7.39629V6.30769C7.90551 6.11538 8.33638 5.76923 8.64975 5.38462C10.3341 5.26923 11.705 3.92308 11.705 2.23077V1.15385C11.705 0.923077 11.5484 0.769231 11.3133 0.769231ZM1.52071 2.19231V1.53846H3.08754V3.46154C3.08754 3.84615 3.16588 4.19231 3.28339 4.5C2.26495 4.23077 1.52071 3.30769 1.52071 2.19231ZM10.9216 2.19231C10.9216 3.26923 10.1774 4.19231 9.15896 4.5C9.27647 4.19231 9.35482 3.84615 9.35482 3.46154V1.53846H10.9216V2.19231Z" fill="#525252"/>
</svg>
